# Blender v2.78 (sub 0) OBJ File: 'untitled.blend'
# www.blender.org
mtllib untitled2.mtl
o larger_note_Shape.001
v 0.124411 -0.116770 -1.872177
v 0.123796 -0.116770 -1.857398
v 0.123283 -0.116770 -1.842522
v 0.122863 -0.116770 -1.827569
v 0.122527 -0.116770 -1.812558
v 0.122265 -0.116770 -1.797509
v 0.122068 -0.116770 -1.782440
v 0.121927 -0.116770 -1.767371
v 0.121833 -0.116770 -1.752322
v 0.121775 -0.116770 -1.737311
v 0.121746 -0.116770 -1.722358
v 0.121735 -0.116770 -1.707482
v 0.121734 -0.116770 -1.692702
v 0.120401 -0.116770 -1.682598
v 0.117786 -0.116770 -1.673340
v 0.113953 -0.116770 -1.664958
v 0.108968 -0.116770 -1.657482
v 0.102896 -0.116770 -1.650940
v 0.095803 -0.116770 -1.645363
v 0.087753 -0.116770 -1.640779
v 0.078813 -0.116770 -1.637220
v 0.069048 -0.116770 -1.634712
v 0.058522 -0.116770 -1.633288
v 0.047301 -0.116770 -1.632975
v 0.035451 -0.116770 -1.633803
v 0.026212 -0.116770 -1.635811
v 0.018632 -0.116770 -1.638953
v 0.012571 -0.116770 -1.643071
v 0.007888 -0.116770 -1.648009
v 0.004442 -0.116770 -1.653611
v 0.002091 -0.116770 -1.659720
v 0.000694 -0.116770 -1.666180
v 0.000112 -0.116770 -1.672834
v 0.000201 -0.116770 -1.679525
v 0.000822 -0.116770 -1.686098
v 0.001834 -0.116770 -1.692394
v 0.003095 -0.116770 -1.698259
v 0.005413 -0.116770 -1.705207
v 0.008358 -0.116770 -1.711928
v 0.011995 -0.116770 -1.718317
v 0.016390 -0.116770 -1.724266
v 0.021608 -0.116770 -1.729668
v 0.027716 -0.116770 -1.734416
v 0.034777 -0.116770 -1.738403
v 0.042859 -0.116770 -1.741523
v 0.052027 -0.116770 -1.743668
v 0.062346 -0.116770 -1.744732
v 0.073882 -0.116770 -1.744607
v 0.086700 -0.116770 -1.743187
v 0.086700 -0.116770 -1.745837
v 0.086700 -0.116770 -1.753326
v 0.086700 -0.116770 -1.764962
v 0.086700 -0.116770 -1.780054
v 0.086700 -0.116770 -1.797912
v 0.086700 -0.116770 -1.817843
v 0.086700 -0.116770 -1.839157
v 0.086700 -0.116770 -1.861161
v 0.086700 -0.116770 -1.883166
v 0.086700 -0.116770 -1.904480
v 0.086700 -0.116770 -1.924411
v 0.086700 -0.116770 -1.942269
v 0.111876 -0.116770 -1.948998
v 0.134839 -0.116770 -1.952388
v 0.155628 -0.116770 -1.952488
v 0.174281 -0.116770 -1.949345
v 0.190835 -0.116770 -1.943009
v 0.205330 -0.116770 -1.933527
v 0.217802 -0.116770 -1.920948
v 0.228290 -0.116770 -1.905320
v 0.236831 -0.116770 -1.886690
v 0.243464 -0.116770 -1.865108
v 0.248227 -0.116770 -1.840621
v 0.251158 -0.116770 -1.813279
v 0.243563 -0.116770 -1.824780
v 0.235586 -0.116770 -1.835375
v 0.227180 -0.116770 -1.844974
v 0.218298 -0.116770 -1.853491
v 0.208891 -0.116770 -1.860838
v 0.198914 -0.116770 -1.866929
v 0.188318 -0.116770 -1.871674
v 0.177057 -0.116770 -1.874988
v 0.165083 -0.116770 -1.876783
v 0.152349 -0.116770 -1.876971
v 0.138807 -0.116770 -1.875465
vn 0.0000 1.0000 0.0000
usemtl SVGMat.011
s off
f 63//1 65//1 64//1
f 62//1 65//1 63//1
f 62//1 66//1 65//1
f 61//1 66//1 62//1
f 61//1 67//1 66//1
f 60//1 67//1 61//1
f 60//1 68//1 67//1
f 59//1 68//1 60//1
f 59//1 69//1 68//1
f 59//1 70//1 69//1
f 58//1 70//1 59//1
f 58//1 82//1 70//1
f 82//1 71//1 70//1
f 57//1 1//1 58//1
f 1//1 84//1 58//1
f 84//1 83//1 58//1
f 83//1 82//1 58//1
f 81//1 71//1 82//1
f 80//1 71//1 81//1
f 57//1 2//1 1//1
f 79//1 71//1 80//1
f 78//1 71//1 79//1
f 78//1 72//1 71//1
f 56//1 2//1 57//1
f 77//1 72//1 78//1
f 56//1 3//1 2//1
f 76//1 72//1 77//1
f 75//1 72//1 76//1
f 56//1 4//1 3//1
f 75//1 74//1 72//1
f 74//1 73//1 72//1
f 55//1 4//1 56//1
f 55//1 5//1 4//1
f 54//1 5//1 55//1
f 54//1 6//1 5//1
f 53//1 6//1 54//1
f 53//1 7//1 6//1
f 53//1 8//1 7//1
f 52//1 8//1 53//1
f 52//1 9//1 8//1
f 51//1 9//1 52//1
f 50//1 9//1 51//1
f 50//1 10//1 9//1
f 49//1 10//1 50//1
f 46//1 48//1 47//1
f 46//1 49//1 48//1
f 45//1 49//1 46//1
f 45//1 10//1 49//1
f 44//1 10//1 45//1
f 43//1 10//1 44//1
f 43//1 11//1 10//1
f 42//1 11//1 43//1
f 41//1 11//1 42//1
f 40//1 11//1 41//1
f 40//1 12//1 11//1
f 39//1 12//1 40//1
f 38//1 12//1 39//1
f 38//1 13//1 12//1
f 37//1 13//1 38//1
f 36//1 13//1 37//1
f 36//1 14//1 13//1
f 35//1 14//1 36//1
f 34//1 14//1 35//1
f 34//1 15//1 14//1
f 33//1 15//1 34//1
f 33//1 16//1 15//1
f 32//1 16//1 33//1
f 31//1 16//1 32//1
f 31//1 17//1 16//1
f 30//1 17//1 31//1
f 30//1 18//1 17//1
f 29//1 18//1 30//1
f 29//1 19//1 18//1
f 28//1 19//1 29//1
f 28//1 20//1 19//1
f 27//1 20//1 28//1
f 27//1 21//1 20//1
f 26//1 21//1 27//1
f 26//1 22//1 21//1
f 25//1 22//1 26//1
f 25//1 23//1 22//1
f 24//1 23//1 25//1
o note_Shape
v 2.490166 0.602011 1.349712
v 2.415282 0.602011 1.240217
v 2.336631 0.602011 1.139363
v 2.253748 0.602011 1.047980
v 2.166167 0.602011 0.966902
v 2.073423 0.602011 0.896958
v 1.975047 0.602011 0.838982
v 1.870576 0.602011 0.793805
v 1.759542 0.602011 0.762259
v 1.641479 0.602011 0.745174
v 1.515921 0.602011 0.743385
v 1.382402 0.602011 0.757721
v 1.240456 0.602011 0.789014
v 1.234391 0.602011 0.929709
v 1.229335 0.602011 1.071322
v 1.225195 0.602011 1.213670
v 1.221880 0.602011 1.356569
v 1.219298 0.602011 1.499835
v 1.217358 0.602011 1.643285
v 1.215968 0.602011 1.786735
v 1.215036 0.602011 1.930001
v 1.214471 0.602011 2.072899
v 1.214181 0.602011 2.215247
v 1.214074 0.602011 2.356860
v 1.214059 0.602011 2.497555
v 1.200920 0.602011 2.593744
v 1.175134 0.602011 2.681876
v 1.137342 0.602011 2.761669
v 1.088191 0.602011 2.832843
v 1.028324 0.602011 2.895117
v 0.958385 0.602011 2.948210
v 0.879018 0.602011 2.991842
v 0.790868 0.602011 3.025731
v 0.694580 0.602011 3.049598
v 0.590796 0.602011 3.063161
v 0.480161 0.602011 3.066139
v 0.363321 0.602011 3.058253
v 0.272223 0.602011 3.039137
v 0.197491 0.602011 3.009233
v 0.137732 0.602011 2.970029
v 0.091557 0.602011 2.923018
v 0.057575 0.602011 2.869688
v 0.034395 0.602011 2.811530
v 0.020627 0.602011 2.750035
v 0.014880 0.602011 2.686693
v 0.015764 0.602011 2.622994
v 0.021888 0.602011 2.560428
v 0.031861 0.602011 2.500487
v 0.044294 0.602011 2.444659
v 0.067153 0.602011 2.378520
v 0.096190 0.602011 2.314532
v 0.132052 0.602011 2.253714
v 0.175385 0.602011 2.197083
v 0.226836 0.602011 2.145658
v 0.287052 0.602011 2.100457
v 0.356680 0.602011 2.062497
v 0.436366 0.602011 2.032798
v 0.526758 0.602011 2.012376
v 0.628502 0.602011 2.002249
v 0.742246 0.602011 2.003437
v 0.868635 0.602011 2.016957
v 0.868635 0.602011 1.991732
v 0.868635 0.602011 1.920443
v 0.868635 0.602011 1.809671
v 0.868635 0.602011 1.665996
v 0.868635 0.602011 1.496000
v 0.868635 0.602011 1.306262
v 0.868635 0.602011 1.103363
v 0.868635 0.602011 0.893883
v 0.868635 0.602011 0.684403
v 0.868635 0.602011 0.481504
v 0.868635 0.602011 0.291766
v 0.868635 0.602011 0.121769
v 1.116861 0.602011 0.057714
v 1.343275 0.602011 0.025440
v 1.548252 0.602011 0.024490
v 1.732167 0.602011 0.054404
v 1.895393 0.602011 0.114722
v 2.038306 0.602011 0.204986
v 2.161279 0.602011 0.324736
v 2.264688 0.602011 0.473514
v 2.348907 0.602011 0.650859
v 2.414310 0.602011 0.856314
v 2.461271 0.602011 1.089418
v 2.490166 -0.376444 1.349712
v 2.415282 -0.376444 1.240217
v 2.336631 -0.376444 1.139363
v 2.253748 -0.376444 1.047980
v 2.166167 -0.376444 0.966902
v 2.073423 -0.376444 0.896958
v 1.975047 -0.376444 0.838982
v 1.870576 -0.376444 0.793805
v 1.759542 -0.376444 0.762259
v 1.641479 -0.376444 0.745174
v 1.515921 -0.376444 0.743385
v 1.382402 -0.376444 0.757721
v 1.240456 -0.376444 0.789014
v 1.234391 -0.376444 0.929709
v 1.229335 -0.376444 1.071322
v 1.225195 -0.376444 1.213670
v 1.221880 -0.376444 1.356569
v 1.219298 -0.376444 1.499835
v 1.217358 -0.376444 1.643285
v 1.215968 -0.376444 1.786735
v 1.215036 -0.376444 1.930001
v 1.214471 -0.376444 2.072899
v 1.214181 -0.376444 2.215247
v 1.214074 -0.376444 2.356860
v 1.214059 -0.376444 2.497555
v 1.200920 -0.376444 2.593744
v 1.175134 -0.376444 2.681876
v 1.137342 -0.376444 2.761669
v 1.088191 -0.376444 2.832843
v 1.028324 -0.376444 2.895117
v 0.958385 -0.376444 2.948210
v 0.879018 -0.376444 2.991842
v 0.790868 -0.376444 3.025731
v 0.694580 -0.376444 3.049598
v 0.590796 -0.376444 3.063161
v 0.480161 -0.376444 3.066139
v 0.363321 -0.376444 3.058253
v 0.272223 -0.376444 3.039137
v 0.197491 -0.376444 3.009233
v 0.137732 -0.376444 2.970029
v 0.091557 -0.376444 2.923018
v 0.057575 -0.376444 2.869688
v 0.034395 -0.376444 2.811530
v 0.020627 -0.376444 2.750035
v 0.014880 -0.376444 2.686693
v 0.015764 -0.376444 2.622994
v 0.021888 -0.376444 2.560428
v 0.031861 -0.376444 2.500487
v 0.044294 -0.376444 2.444659
v 0.067153 -0.376444 2.378520
v 0.096190 -0.376444 2.314532
v 0.132052 -0.376444 2.253714
v 0.175385 -0.376444 2.197083
v 0.226836 -0.376444 2.145658
v 0.287052 -0.376444 2.100457
v 0.356680 -0.376444 2.062497
v 0.436366 -0.376444 2.032798
v 0.526758 -0.376444 2.012376
v 0.628502 -0.376444 2.002249
v 0.742246 -0.376444 2.003437
v 0.868635 -0.376444 2.016957
v 0.868635 -0.376444 1.991732
v 0.868635 -0.376444 1.920443
v 0.868635 -0.376444 1.809671
v 0.868635 -0.376444 1.665996
v 0.868635 -0.376444 1.496000
v 0.868635 -0.376444 1.306262
v 0.868635 -0.376444 1.103363
v 0.868635 -0.376444 0.893883
v 0.868635 -0.376444 0.684403
v 0.868635 -0.376444 0.481504
v 0.868635 -0.376444 0.291766
v 0.868635 -0.376444 0.121769
v 1.116861 -0.376444 0.057714
v 1.343275 -0.376444 0.025440
v 1.548252 -0.376444 0.024490
v 1.732167 -0.376444 0.054404
v 1.895393 -0.376444 0.114722
v 2.038306 -0.376444 0.204986
v 2.161279 -0.376444 0.324736
v 2.264688 -0.376444 0.473514
v 2.348907 -0.376444 0.650859
v 2.414310 -0.376444 0.856314
v 2.461271 -0.376444 1.089418
v 2.490166 -0.376444 1.349712
v 2.490166 0.602011 1.349712
v 2.415282 -0.376444 1.240217
v 2.415282 0.602011 1.240217
v 2.336631 -0.376444 1.139363
v 2.336631 0.602011 1.139363
v 2.253748 -0.376444 1.047980
v 2.253748 0.602011 1.047980
v 2.166167 -0.376444 0.966902
v 2.166167 0.602011 0.966902
v 2.073423 -0.376444 0.896958
v 2.073423 0.602011 0.896958
v 1.975047 -0.376444 0.838982
v 1.975047 0.602011 0.838982
v 1.870576 -0.376444 0.793805
v 1.870576 0.602011 0.793805
v 1.759542 -0.376444 0.762259
v 1.759542 0.602011 0.762259
v 1.641479 -0.376444 0.745174
v 1.641479 0.602011 0.745174
v 1.515921 -0.376444 0.743385
v 1.515921 0.602011 0.743385
v 1.382402 -0.376444 0.757721
v 1.382402 0.602011 0.757721
v 1.240456 -0.376444 0.789014
v 1.240456 0.602011 0.789014
v 1.234391 -0.376444 0.929709
v 1.234391 0.602011 0.929709
v 1.229335 -0.376444 1.071322
v 1.229335 0.602011 1.071322
v 1.225195 -0.376444 1.213670
v 1.225195 0.602011 1.213670
v 1.221880 -0.376444 1.356569
v 1.221880 0.602011 1.356569
v 1.219298 -0.376444 1.499835
v 1.219298 0.602011 1.499835
v 1.217358 -0.376444 1.643285
v 1.217358 0.602011 1.643285
v 1.215968 -0.376444 1.786735
v 1.215968 0.602011 1.786735
v 1.215036 -0.376444 1.930001
v 1.215036 0.602011 1.930001
v 1.214471 -0.376444 2.072899
v 1.214471 0.602011 2.072899
v 1.214181 -0.376444 2.215247
v 1.214181 0.602011 2.215247
v 1.214074 -0.376444 2.356860
v 1.214074 0.602011 2.356860
v 1.214059 -0.376444 2.497555
v 1.214059 0.602011 2.497555
v 1.200920 -0.376444 2.593744
v 1.200920 0.602011 2.593744
v 1.175134 -0.376444 2.681876
v 1.175134 0.602011 2.681876
v 1.137342 -0.376444 2.761669
v 1.137342 0.602011 2.761669
v 1.088191 -0.376444 2.832843
v 1.088191 0.602011 2.832843
v 1.028324 -0.376444 2.895117
v 1.028324 0.602011 2.895117
v 0.958385 -0.376444 2.948210
v 0.958385 0.602011 2.948210
v 0.879018 -0.376444 2.991842
v 0.879018 0.602011 2.991842
v 0.790868 -0.376444 3.025731
v 0.790868 0.602011 3.025731
v 0.694580 -0.376444 3.049598
v 0.694580 0.602011 3.049598
v 0.590796 -0.376444 3.063161
v 0.590796 0.602011 3.063161
v 0.480161 -0.376444 3.066139
v 0.480161 0.602011 3.066139
v 0.363321 -0.376444 3.058253
v 0.363321 0.602011 3.058253
v 0.272223 -0.376444 3.039137
v 0.272223 0.602011 3.039137
v 0.197491 -0.376444 3.009233
v 0.197491 0.602011 3.009233
v 0.137732 -0.376444 2.970029
v 0.137732 0.602011 2.970029
v 0.091557 -0.376444 2.923018
v 0.091557 0.602011 2.923018
v 0.057575 -0.376444 2.869688
v 0.057575 0.602011 2.869688
v 0.034395 -0.376444 2.811530
v 0.034395 0.602011 2.811530
v 0.020627 -0.376444 2.750035
v 0.020627 0.602011 2.750035
v 0.014880 -0.376444 2.686693
v 0.014880 0.602011 2.686693
v 0.015764 -0.376444 2.622994
v 0.015764 0.602011 2.622994
v 0.021888 -0.376444 2.560428
v 0.021888 0.602011 2.560428
v 0.031861 -0.376444 2.500487
v 0.031861 0.602011 2.500487
v 0.044294 -0.376444 2.444659
v 0.044294 0.602011 2.444659
v 0.067153 -0.376444 2.378520
v 0.067153 0.602011 2.378520
v 0.096190 -0.376444 2.314532
v 0.096190 0.602011 2.314532
v 0.132052 -0.376444 2.253714
v 0.132052 0.602011 2.253714
v 0.175385 -0.376444 2.197083
v 0.175385 0.602011 2.197083
v 0.226836 -0.376444 2.145658
v 0.226836 0.602011 2.145658
v 0.287052 -0.376444 2.100457
v 0.287052 0.602011 2.100457
v 0.356680 -0.376444 2.062497
v 0.356680 0.602011 2.062497
v 0.436366 -0.376444 2.032798
v 0.436366 0.602011 2.032798
v 0.526758 -0.376444 2.012376
v 0.526758 0.602011 2.012376
v 0.628502 -0.376444 2.002249
v 0.628502 0.602011 2.002249
v 0.742246 -0.376444 2.003437
v 0.742246 0.602011 2.003437
v 0.868635 -0.376444 2.016957
v 0.868635 0.602011 2.016957
v 0.868635 -0.376444 1.991732
v 0.868635 0.602011 1.991732
v 0.868635 -0.376444 1.920443
v 0.868635 0.602011 1.920443
v 0.868635 -0.376444 1.809671
v 0.868635 0.602011 1.809671
v 0.868635 -0.376444 1.665996
v 0.868635 0.602011 1.665996
v 0.868635 -0.376444 1.496000
v 0.868635 0.602011 1.496000
v 0.868635 -0.376444 1.306262
v 0.868635 0.602011 1.306262
v 0.868635 -0.376444 1.103363
v 0.868635 0.602011 1.103363
v 0.868635 -0.376444 0.893883
v 0.868635 0.602011 0.893883
v 0.868635 -0.376444 0.684403
v 0.868635 0.602011 0.684403
v 0.868635 -0.376444 0.481504
v 0.868635 0.602011 0.481504
v 0.868635 -0.376444 0.291766
v 0.868635 0.602011 0.291766
v 0.868635 -0.376444 0.121769
v 0.868635 0.602011 0.121769
v 1.116861 -0.376444 0.057714
v 1.116861 0.602011 0.057714
v 1.343275 -0.376444 0.025440
v 1.343275 0.602011 0.025440
v 1.548252 -0.376444 0.024490
v 1.548252 0.602011 0.024490
v 1.732167 -0.376444 0.054404
v 1.732167 0.602011 0.054404
v 1.895393 -0.376444 0.114722
v 1.895393 0.602011 0.114722
v 2.038306 -0.376444 0.204986
v 2.038306 0.602011 0.204986
v 2.161279 -0.376444 0.324736
v 2.161279 0.602011 0.324736
v 2.264688 -0.376444 0.473514
v 2.264688 0.602011 0.473514
v 2.348907 -0.376444 0.650859
v 2.348907 0.602011 0.650859
v 2.414310 -0.376444 0.856314
v 2.414310 0.602011 0.856314
v 2.461271 -0.376444 1.089418
v 2.461271 0.602011 1.089418
vn 0.0000 1.0000 0.0000
vn 0.0000 1.0000 0.0007
vn 0.0000 -1.0000 -0.0000
vn 0.0000 -1.0000 0.0004
vn 0.3478 0.0000 0.9376
vn -0.8074 0.0000 0.5900
vn -0.7652 0.0000 0.6438
vn -0.7107 0.0000 0.7035
vn -0.6415 0.0000 0.7671
vn -0.5558 0.0000 0.8313
vn -0.4532 0.0000 0.8914
vn -0.3358 0.0000 0.9419
vn -0.2087 0.0000 0.9780
vn -0.0789 0.0000 0.9969
vn 0.0463 0.0000 0.9989
vn 0.1613 0.0000 0.9869
vn 0.7658 0.0000 0.6430
vn 0.9992 0.0000 0.0394
vn 0.9995 0.0000 0.0323
vn 0.9996 0.0000 0.0261
vn 0.9998 0.0000 0.0206
vn 0.9998 0.0000 0.0157
vn 0.9999 0.0000 0.0116
vn 0.9999 0.0000 0.0081
vn 1.0000 0.0000 0.0052
vn 1.0000 0.0000 0.0030
vn 1.0000 0.0000 0.0014
vn 1.0000 0.0000 0.0004
vn 0.9977 0.0000 0.0679
vn 0.9780 0.0000 0.2086
vn 0.9347 0.0000 0.3555
vn 0.8661 0.0000 0.4998
vn 0.7744 0.0000 0.6327
vn 0.6648 0.0000 0.7470
vn 0.5446 0.0000 0.8386
vn 0.4212 0.0000 0.9069
vn 0.3003 0.0000 0.9538
vn 0.1854 0.0000 0.9827
vn 0.0783 0.0000 0.9969
vn -0.0202 0.0000 0.9998
vn -0.1367 0.0000 0.9906
vn -0.2895 0.0000 0.9572
vn -0.4623 0.0000 0.8867
vn -0.6346 0.0000 0.7728
vn -0.7826 0.0000 0.6225
vn -0.8900 0.0000 0.4558
vn -0.9554 0.0000 0.2953
vn -0.9879 0.0000 0.1547
vn -0.9992 0.0000 0.0383
vn -0.9984 0.0000 -0.0557
vn -0.9914 0.0000 -0.1308
vn -0.9816 0.0000 -0.1908
vn -0.9622 0.0000 -0.2724
vn -0.9289 0.0000 -0.3703
vn -0.8873 0.0000 -0.4612
vn -0.8293 0.0000 -0.5588
vn -0.7522 0.0000 -0.6589
vn -0.6553 0.0000 -0.7554
vn -0.5409 0.0000 -0.8411
vn -0.4150 0.0000 -0.9098
vn -0.2854 0.0000 -0.9584
vn -0.1600 0.0000 -0.9871
vn -0.0443 0.0000 -0.9990
vn 0.0584 0.0000 -0.9983
vn -0.6684 0.0000 -0.7437
vn -1.0000 0.0000 0.0000
vn -0.7905 0.0000 -0.6124
vn -0.1958 0.0000 -0.9806
vn -0.0730 0.0000 -0.9973
vn 0.0782 0.0000 -0.9969
vn 0.2547 0.0000 -0.9670
vn 0.4427 0.0000 -0.8966
vn 0.6192 0.0000 -0.7852
vn 0.7629 0.0000 -0.6465
vn 0.8651 0.0000 -0.5015
vn 0.9302 0.0000 -0.3670
vn 0.9680 0.0000 -0.2508
vn 0.9880 0.0000 -0.1541
usemtl SVGMat.009
s off
f 159//2 161//2 160//2
f 158//2 161//2 159//2
f 158//2 162//2 161//2
f 157//2 162//2 158//2
f 157//2 163//2 162//2
f 156//2 163//2 157//2
f 156//2 164//2 163//2
f 155//2 164//2 156//2
f 155//2 165//2 164//2
f 155//2 166//2 165//2
f 154//2 166//2 155//2
f 154//2 94//2 166//2
f 94//2 167//2 166//2
f 153//2 97//2 154//2
f 97//2 96//2 154//2
f 96//2 95//2 154//2
f 95//2 94//2 154//2
f 93//3 167//3 94//3
f 92//2 167//2 93//2
f 153//2 98//2 97//2
f 91//2 167//2 92//2
f 90//2 167//2 91//2
f 90//2 168//2 167//2
f 152//2 98//2 153//2
f 89//2 168//2 90//2
f 152//2 99//2 98//2
f 88//2 168//2 89//2
f 87//2 168//2 88//2
f 152//2 100//2 99//2
f 87//2 86//2 168//2
f 86//2 85//2 168//2
f 151//2 100//2 152//2
f 151//2 101//2 100//2
f 150//2 101//2 151//2
f 150//2 102//2 101//2
f 149//2 102//2 150//2
f 149//2 103//2 102//2
f 149//2 104//2 103//2
f 148//2 104//2 149//2
f 148//2 105//2 104//2
f 147//2 105//2 148//2
f 146//2 105//2 147//2
f 146//2 106//2 105//2
f 145//2 106//2 146//2
f 142//2 144//2 143//2
f 142//2 145//2 144//2
f 141//2 145//2 142//2
f 141//2 106//2 145//2
f 140//2 106//2 141//2
f 139//2 106//2 140//2
f 139//2 107//2 106//2
f 138//2 107//2 139//2
f 137//2 107//2 138//2
f 136//2 107//2 137//2
f 136//2 108//2 107//2
f 135//2 108//2 136//2
f 134//2 108//2 135//2
f 134//2 109//2 108//2
f 133//2 109//2 134//2
f 132//2 109//2 133//2
f 132//2 110//2 109//2
f 131//2 110//2 132//2
f 130//2 110//2 131//2
f 130//2 111//2 110//2
f 129//2 111//2 130//2
f 129//2 112//2 111//2
f 128//2 112//2 129//2
f 127//2 112//2 128//2
f 127//2 113//2 112//2
f 126//2 113//2 127//2
f 126//2 114//2 113//2
f 125//2 114//2 126//2
f 125//2 115//2 114//2
f 124//2 115//2 125//2
f 124//2 116//2 115//2
f 123//2 116//2 124//2
f 123//2 117//2 116//2
f 122//2 117//2 123//2
f 122//2 118//2 117//2
f 121//2 118//2 122//2
f 121//2 119//2 118//2
f 120//2 119//2 121//2
f 245//4 243//4 244//4
f 245//4 242//4 243//4
f 246//4 242//4 245//4
f 246//4 241//4 242//4
f 247//4 241//4 246//4
f 247//4 240//4 241//4
f 248//4 240//4 247//4
f 248//4 239//4 240//4
f 249//4 239//4 248//4
f 250//4 239//4 249//4
f 250//4 238//4 239//4
f 178//4 238//4 250//4
f 251//4 178//4 250//4
f 181//4 237//4 238//4
f 180//4 181//4 238//4
f 179//4 180//4 238//4
f 178//4 179//4 238//4
f 251//5 177//5 178//5
f 251//4 176//4 177//4
f 182//4 237//4 181//4
f 251//4 175//4 176//4
f 251//4 174//4 175//4
f 252//4 174//4 251//4
f 182//4 236//4 237//4
f 252//4 173//4 174//4
f 183//4 236//4 182//4
f 252//4 172//4 173//4
f 252//4 171//4 172//4
f 184//4 236//4 183//4
f 170//4 171//4 252//4
f 169//4 170//4 252//4
f 184//4 235//4 236//4
f 185//4 235//4 184//4
f 185//4 234//4 235//4
f 186//4 234//4 185//4
f 186//4 233//4 234//4
f 187//4 233//4 186//4
f 188//4 233//4 187//4
f 188//4 232//4 233//4
f 189//4 232//4 188//4
f 189//4 231//4 232//4
f 189//4 230//4 231//4
f 190//4 230//4 189//4
f 190//4 229//4 230//4
f 228//4 226//4 227//4
f 229//4 226//4 228//4
f 229//4 225//4 226//4
f 190//4 225//4 229//4
f 190//4 224//4 225//4
f 190//4 223//4 224//4
f 191//4 223//4 190//4
f 191//4 222//4 223//4
f 191//4 221//4 222//4
f 191//4 220//4 221//4
f 192//4 220//4 191//4
f 192//4 219//4 220//4
f 192//4 218//4 219//4
f 193//4 218//4 192//4
f 193//4 217//4 218//4
f 193//4 216//4 217//4
f 194//4 216//4 193//4
f 194//4 215//4 216//4
f 194//4 214//4 215//4
f 195//4 214//4 194//4
f 195//4 213//4 214//4
f 196//4 213//4 195//4
f 196//4 212//4 213//4
f 196//4 211//4 212//4
f 197//4 211//4 196//4
f 197//4 210//4 211//4
f 198//4 210//4 197//4
f 198//4 209//4 210//4
f 199//4 209//4 198//4
f 199//4 208//4 209//4
f 200//4 208//4 199//4
f 200//4 207//4 208//4
f 201//4 207//4 200//4
f 201//4 206//4 207//4
f 202//4 206//4 201//4
f 202//4 205//4 206//4
f 203//4 205//4 202//4
f 203//4 204//4 205//4
s 1
f 254//6 256//7 255//7 253//6
f 256//7 258//8 257//8 255//7
f 258//8 260//9 259//9 257//8
f 260//9 262//10 261//10 259//9
f 262//10 264//11 263//11 261//10
f 264//11 266//12 265//12 263//11
f 266//12 268//13 267//13 265//12
f 268//13 270//14 269//14 267//13
f 270//14 272//15 271//15 269//14
f 272//15 274//16 273//16 271//15
f 274//16 276//17 275//17 273//16
f 276//17 278//18 277//18 275//17
f 278//18 280//19 279//19 277//18
f 280//19 282//20 281//20 279//19
f 282//20 284//21 283//21 281//20
f 284//21 286//22 285//22 283//21
f 286//22 288//23 287//23 285//22
f 288//23 290//24 289//24 287//23
f 290//24 292//25 291//25 289//24
f 292//25 294//26 293//26 291//25
f 294//26 296//27 295//27 293//26
f 296//27 298//28 297//28 295//27
f 298//28 300//29 299//29 297//28
f 300//29 302//30 301//30 299//29
f 302//30 304//31 303//31 301//30
f 304//31 306//32 305//32 303//31
f 306//32 308//33 307//33 305//32
f 308//33 310//34 309//34 307//33
f 310//34 312//35 311//35 309//34
f 312//35 314//36 313//36 311//35
f 314//36 316//37 315//37 313//36
f 316//37 318//38 317//38 315//37
f 318//38 320//39 319//39 317//38
f 320//39 322//40 321//40 319//39
f 322//40 324//41 323//41 321//40
f 324//41 326//42 325//42 323//41
f 326//42 328//43 327//43 325//42
f 328//43 330//44 329//44 327//43
f 330//44 332//45 331//45 329//44
f 332//45 334//46 333//46 331//45
f 334//46 336//47 335//47 333//46
f 336//47 338//48 337//48 335//47
f 338//48 340//49 339//49 337//48
f 340//49 342//50 341//50 339//49
f 342//50 344//51 343//51 341//50
f 344//51 346//52 345//52 343//51
f 346//52 348//53 347//53 345//52
f 348//53 350//54 349//54 347//53
f 350//54 352//55 351//55 349//54
f 352//55 354//56 353//56 351//55
f 354//56 356//57 355//57 353//56
f 356//57 358//58 357//58 355//57
f 358//58 360//59 359//59 357//58
f 360//59 362//60 361//60 359//59
f 362//60 364//61 363//61 361//60
f 364//61 366//62 365//62 363//61
f 366//62 368//63 367//63 365//62
f 368//63 370//64 369//64 367//63
f 370//64 372//65 371//65 369//64
f 372//65 374//66 373//66 371//65
f 374//66 376//67 375//67 373//66
f 376//67 378//67 377//67 375//67
f 378//67 380//67 379//67 377//67
f 380//67 382//67 381//67 379//67
f 382//67 384//67 383//67 381//67
f 384//67 386//67 385//67 383//67
f 386//67 388//67 387//67 385//67
f 388//67 390//67 389//67 387//67
f 390//67 392//67 391//67 389//67
f 392//67 394//67 393//67 391//67
f 394//67 396//67 395//67 393//67
f 396//67 398//68 397//68 395//67
f 398//68 400//69 399//69 397//68
f 400//69 402//70 401//70 399//69
f 402//70 404//71 403//71 401//70
f 404//71 406//72 405//72 403//71
f 406//72 408//73 407//73 405//72
f 408//73 410//74 409//74 407//73
f 410//74 412//75 411//75 409//74
f 412//75 414//76 413//76 411//75
f 414//76 416//77 415//77 413//76
f 416//77 418//78 417//78 415//77
f 418//78 420//79 419//79 417//78
f 420//79 254//6 253//6 419//79
